# 3ds Max Wavefront OBJ Exporter v0.97b - (c)2007 guruware
# File Created: 04.01.2017 17:51:53

mtllib ss_chunk_loader.mtl

#
# object clbody
#

v  0.1875 0.0000 0.8125
v  0.1875 0.0000 0.1875
v  0.8125 0.0000 0.1875
v  0.8125 0.0000 0.8125
v  0.1875 0.5000 0.8125
v  0.8125 0.5000 0.8125
v  0.8125 0.5000 0.1875
v  0.1875 0.5000 0.1875
# 8 vertices

vn 0.0000 -1.0000 -0.0000
vn 0.0000 1.0000 -0.0000
vn 0.0000 0.0000 1.0000
vn 1.0000 0.0000 -0.0000
vn 0.0000 0.0000 -1.0000
vn -1.0000 0.0000 -0.0000
# 6 vertex normals

vt 0.5789 0.4211 0.0005
vt 0.5789 1.0000 0.0005
vt 0.0000 1.0000 0.0005
vt 0.0000 0.4211 0.0005
vt 0.0000 0.4211 0.5000
vt 0.5789 0.4211 0.5000
vt 0.5789 1.0000 0.5000
vt 0.0000 1.0000 0.5000
vt 0.0000 0.0000 0.1875
vt 0.5789 0.0000 0.1875
vt 0.5789 0.4211 0.1875
vt 0.0000 0.4211 0.1875
vt 0.0000 0.0000 0.8125
vt 0.5789 0.0000 0.8125
vt 0.5789 0.4211 0.8125
vt 0.0000 0.4211 0.8125
# 16 texture coords

g clbody
usemtl Material__0
s 2
f 1/1/1 2/2/1 3/3/1 
f 3/3/1 4/4/1 1/1/1 
s 4
f 5/5/2 6/6/2 7/7/2 
f 7/7/2 8/8/2 5/5/2 
s 8
f 1/9/3 4/10/3 6/11/3 
f 6/11/3 5/12/3 1/9/3 
s 16
f 4/13/4 3/14/4 7/15/4 
f 7/15/4 6/16/4 4/13/4 
s 32
f 3/13/5 2/14/5 8/15/5 
f 8/15/5 7/16/5 3/13/5 
s 64
f 2/9/6 1/10/6 5/11/6 
f 5/11/6 8/12/6 2/9/6 
# 12 faces

#
# object clspinner
#

v  0.4375 0.2925 0.5625
v  0.4375 0.2925 0.4375
v  0.5625 0.2925 0.4375
v  0.5625 0.2925 0.5625
v  0.4375 1.0000 0.5625
v  0.5625 1.0000 0.5625
v  0.5625 1.0000 0.4375
v  0.4375 1.0000 0.4375
v  0.5700 0.9450 0.9975
v  0.4300 0.9450 0.9975
v  0.4300 0.8050 0.9975
v  0.5700 0.8050 0.9975
v  0.9975 0.9450 0.4300
v  0.9975 0.9450 0.5700
v  0.9975 0.8050 0.5700
v  0.9975 0.8050 0.4300
v  0.4300 0.9450 0.0025
v  0.5700 0.9450 0.0025
v  0.5700 0.8050 0.0025
v  0.4300 0.8050 0.0025
v  0.0025 0.9450 0.5700
v  0.0025 0.9450 0.4300
v  0.0025 0.8050 0.4300
v  0.0025 0.8050 0.5700
v  0.4375 0.9375 0.5625
v  0.5625 0.9375 0.5625
v  0.5625 0.8125 0.5625
v  0.4375 0.8125 0.5625
v  0.5625 0.9375 0.4375
v  0.5625 0.8125 0.4375
v  0.4375 0.9375 0.4375
v  0.4375 0.8125 0.4375
v  0.5325 0.9075 0.5625
v  0.5325 0.8425 0.5625
v  0.4675 0.9075 0.5625
v  0.4675 0.8425 0.5625
v  0.5625 0.9075 0.4675
v  0.5625 0.8425 0.4675
v  0.5625 0.9075 0.5325
v  0.5625 0.8425 0.5325
v  0.4675 0.9075 0.4375
v  0.4675 0.8425 0.4375
v  0.5325 0.9075 0.4375
v  0.5325 0.8425 0.4375
v  0.4375 0.9075 0.5325
v  0.4375 0.8425 0.5325
v  0.4375 0.9075 0.4675
v  0.4375 0.8425 0.4675
v  0.5325 0.9075 0.8725
v  0.5325 0.8425 0.8725
v  0.4675 0.9075 0.8725
v  0.4675 0.8425 0.8725
v  0.8725 0.9075 0.4675
v  0.8725 0.8425 0.4675
v  0.8725 0.9075 0.5325
v  0.8725 0.8425 0.5325
v  0.4675 0.9075 0.1275
v  0.4675 0.8425 0.1275
v  0.5325 0.9075 0.1275
v  0.5325 0.8425 0.1275
v  0.1275 0.9075 0.5325
v  0.1275 0.8425 0.5325
v  0.1275 0.9075 0.4675
v  0.1275 0.8425 0.4675
v  0.5700 0.9450 0.8725
v  0.5700 0.8050 0.8725
v  0.4300 0.9450 0.8725
v  0.4300 0.8050 0.8725
v  0.8725 0.9450 0.4300
v  0.8725 0.8050 0.4300
v  0.8725 0.9450 0.5700
v  0.8725 0.8050 0.5700
v  0.4300 0.9450 0.1275
v  0.4300 0.8050 0.1275
v  0.5700 0.9450 0.1275
v  0.5700 0.8050 0.1275
v  0.1275 0.9450 0.5700
v  0.1275 0.8050 0.5700
v  0.1275 0.9450 0.4300
v  0.1275 0.8050 0.4300
# 80 vertices

vn 0.0000 -1.0000 -0.0000
vn 0.0000 1.0000 -0.0000
vn 0.0000 0.0000 1.0000
vn 1.0000 0.0000 -0.0000
vn 0.0000 0.0000 -1.0000
vn -1.0000 0.0000 -0.0000
vn 1.0000 -0.0000 0.0000
vn 1.0000 0.0000 0.0000
vn 1.0000 -0.0000 -0.0000
vn 0.0000 -0.0000 -1.0000
vn -1.0000 -0.0000 -0.0000
# 11 vertex normals

vt 0.9474 0.5263 0.2927
vt 0.9474 0.6842 0.2927
vt 0.7895 0.6842 0.2927
vt 0.7895 0.5263 0.2927
vt 0.7895 0.5263 0.9995
vt 0.9474 0.5263 0.9995
vt 0.9474 0.6842 0.9995
vt 0.7895 0.6842 0.9995
vt 0.8947 1.0000 0.0025
vt 0.6316 1.0000 0.0025
vt 0.6316 0.7368 0.0025
vt 0.8947 0.7368 0.0025
vt 0.8947 1.0000 0.9975
vt 0.6316 1.0000 0.9975
vt 0.6316 0.7368 0.9975
vt 0.8947 0.7368 0.9975
vt 0.7895 0.6316 0.4375
vt 0.6316 0.6316 0.4375
vt 0.6316 0.5263 0.4375
vt 0.7895 0.5263 0.4375
vt 0.6316 0.0000 0.4375
vt 0.7895 0.0000 0.4375
vt 0.7895 0.3684 0.4375
vt 0.6316 0.3684 0.4375
vt 0.7895 0.6316 0.5625
vt 0.6316 0.6316 0.5625
vt 0.6316 0.5263 0.5625
vt 0.7895 0.5263 0.5625
vt 0.6316 0.0000 0.5625
vt 0.7895 0.0000 0.5625
vt 0.7895 0.3684 0.5625
vt 0.6316 0.3684 0.5625
vt 0.7368 0.4737 0.4375
vt 0.7368 0.4211 0.4375
vt 0.6842 0.4737 0.4375
vt 0.6842 0.4211 0.4375
vt 0.7368 0.4737 0.5625
vt 0.7368 0.4211 0.5625
vt 0.6842 0.4737 0.5625
vt 0.6842 0.4211 0.5625
vt 0.7895 0.0000 0.5325
vt 0.8947 0.0000 0.5325
vt 0.8947 0.5263 0.5325
vt 0.7895 0.5263 0.5325
vt 0.7895 0.0000 0.9071
vt 0.8947 0.0000 0.9071
vt 0.8947 0.5263 0.9071
vt 0.7895 0.5263 0.9071
vt 0.8947 0.5263 0.4675
vt 0.7895 0.5263 0.4675
vt 0.7895 0.0000 0.4675
vt 0.8947 0.0000 0.4675
vt 0.7895 0.0000 0.8422
vt 0.8947 0.0000 0.8422
vt 0.8947 0.5263 0.8422
vt 0.7895 0.5263 0.8422
vt 0.7124 0.8176 0.1275
vt 0.7124 0.9229 0.1275
vt 0.6316 1.0000 0.1275
vt 0.6316 0.7368 0.1275
vt 0.8176 0.9229 0.1275
vt 0.8947 1.0000 0.1275
vt 0.8176 0.8176 0.1275
vt 0.8947 0.7368 0.1275
vt 0.7124 0.8176 0.8725
vt 0.7124 0.9229 0.8725
vt 0.6316 1.0000 0.8725
vt 0.6316 0.7368 0.8725
vt 0.8176 0.9229 0.8725
vt 0.8947 1.0000 0.8725
vt 0.8176 0.8176 0.8725
vt 0.8947 0.7368 0.8725
vt 0.8947 0.7368 0.5700
vt 0.8947 1.0000 0.5700
vt 0.6316 1.0000 0.5700
vt 0.6316 0.7368 0.5700
vt 0.8947 1.0000 0.9446
vt 0.6316 1.0000 0.9446
vt 0.6316 0.7368 0.9446
vt 0.8947 0.7368 0.9446
vt 0.6316 1.0000 0.4300
vt 0.6316 0.7368 0.4300
vt 0.8947 0.7368 0.4300
vt 0.8947 1.0000 0.4300
vt 0.8947 1.0000 0.8047
vt 0.6316 1.0000 0.8047
vt 0.6316 0.7368 0.8047
vt 0.8947 0.7368 0.8047
# 88 texture coords

g clspinner
usemtl Material__0
s 2
f 9/17/7 10/18/7 11/19/7 
f 11/19/7 12/20/7 9/17/7 
s 4
f 13/21/8 14/22/8 15/23/8 
f 15/23/8 16/24/8 13/21/8 
s 8
f 17/25/9 18/26/9 19/27/9 
f 19/27/9 20/28/9 17/25/9 
s 16
f 21/29/10 22/30/10 23/31/10 
f 23/31/10 24/32/10 21/29/10 
s 32
f 25/29/11 26/30/11 27/31/11 
f 27/31/11 28/32/11 25/29/11 
s 64
f 29/25/12 30/26/12 31/27/12 
f 31/27/12 32/28/12 29/25/12 
s 8
f 14/33/9 13/34/9 33/35/9 
f 33/35/9 34/36/9 14/33/9 
f 9/37/9 12/38/9 35/39/9 
f 35/39/9 36/40/9 9/37/9 
s 16
f 15/41/10 14/42/10 34/43/10 
f 34/43/10 37/44/10 15/41/10 
f 12/45/13 11/46/14 38/47/13 
f 38/47/13 35/48/15 12/45/13 
s 32
f 16/41/11 15/42/11 37/43/11 
f 37/43/11 39/44/11 16/41/11 
f 11/45/16 10/46/16 40/47/16 
f 40/47/16 38/48/16 11/45/16 
s 64
f 13/33/12 16/34/12 39/35/12 
f 39/35/12 33/36/12 13/33/12 
f 10/37/17 9/38/17 36/39/17 
f 36/39/17 40/40/17 10/37/17 
s off
f 35/39/9 34/36/9 41/49/9 
f 41/49/9 42/50/9 35/39/9 
f 34/36/9 33/35/9 43/51/9 
f 43/51/9 41/49/9 34/36/9 
f 33/35/9 36/40/9 44/52/9 
f 44/52/9 43/51/9 33/35/9 
f 36/40/9 35/39/9 42/50/9 
f 42/50/9 44/52/9 36/40/9 
f 38/47/10 37/44/10 45/53/10 
f 45/53/10 46/54/10 38/47/10 
f 37/44/10 34/43/10 47/55/10 
f 47/55/10 45/53/10 37/44/10 
f 34/43/10 35/48/10 48/56/10 
f 48/56/10 47/55/10 34/43/10 
f 35/48/10 38/47/10 46/54/10 
f 46/54/10 48/56/10 35/48/10 
f 40/47/11 39/44/11 49/53/11 
f 49/53/11 50/54/11 40/47/11 
f 39/44/11 37/43/11 51/55/11 
f 51/55/11 49/53/11 39/44/11 
f 37/43/11 38/48/11 52/56/11 
f 52/56/11 51/55/11 37/43/11 
f 38/48/11 40/47/11 50/54/11 
f 50/54/11 52/56/11 38/48/11 
f 36/39/12 33/36/12 53/49/12 
f 53/49/12 54/50/12 36/39/12 
f 33/36/12 39/35/12 55/51/12 
f 55/51/12 53/49/12 33/36/12 
f 39/35/12 40/40/12 56/52/12 
f 56/52/12 55/51/12 39/35/12 
f 40/40/12 36/39/12 54/50/12 
f 54/50/12 56/52/12 40/40/12 
f 42/57/10 41/58/10 57/59/10 
f 57/59/10 58/60/10 42/57/10 
f 41/61/8 43/62/8 59/63/8 
f 59/63/8 57/64/8 41/61/8 
f 43/65/12 44/66/12 60/67/12 
f 60/67/12 59/68/12 43/65/12 
f 44/69/7 42/70/7 58/71/7 
f 58/71/7 60/72/7 44/69/7 
f 46/57/11 45/58/11 61/59/11 
f 61/59/11 62/60/11 46/57/11 
f 45/63/8 47/64/8 63/61/8 
f 63/61/8 61/62/8 45/63/8 
f 47/65/9 48/66/9 64/67/9 
f 64/67/9 63/68/9 47/65/9 
f 48/69/7 46/70/7 62/71/7 
f 62/71/7 64/72/7 48/69/7 
f 50/67/12 49/68/12 65/65/12 
f 65/65/12 66/66/12 50/67/12 
f 49/63/8 51/64/8 67/61/8 
f 67/61/8 65/62/8 49/63/8 
f 51/59/10 52/60/10 68/57/10 
f 68/57/10 67/58/10 51/59/10 
f 52/71/7 50/72/7 66/69/7 
f 66/69/7 68/70/7 52/71/7 
f 54/67/9 53/68/9 69/65/9 
f 69/65/9 70/66/9 54/67/9 
f 53/61/8 55/62/8 71/63/8 
f 71/63/8 69/64/8 53/61/8 
f 55/59/11 56/60/11 72/57/11 
f 72/57/11 71/58/11 55/59/11 
f 56/71/7 54/72/7 70/69/7 
f 70/69/7 72/70/7 56/71/7 
f 58/73/11 57/74/11 73/75/11 
f 73/75/11 74/76/11 58/73/11 
f 57/74/11 59/77/11 75/78/11 
f 75/78/11 73/75/11 57/74/11 
f 59/77/11 60/79/11 76/80/11 
f 76/80/11 75/78/11 59/77/11 
f 60/79/11 58/73/11 74/76/11 
f 74/76/11 76/80/11 60/79/11 
f 62/81/12 61/82/12 77/83/12 
f 77/83/12 78/84/12 62/81/12 
f 61/82/12 63/85/12 79/86/12 
f 79/86/12 77/83/12 61/82/12 
f 63/85/12 64/87/12 80/88/12 
f 80/88/12 79/86/12 63/85/12 
f 64/87/12 62/81/12 78/84/12 
f 78/84/12 80/88/12 64/87/12 
f 66/81/9 65/82/9 81/83/9 
f 81/83/9 82/84/9 66/81/9 
f 65/82/9 67/85/9 83/86/9 
f 83/86/9 81/83/9 65/82/9 
f 67/85/9 68/87/9 84/88/9 
f 84/88/9 83/86/9 67/85/9 
f 68/87/9 66/81/9 82/84/9 
f 82/84/9 84/88/9 68/87/9 
f 70/73/10 69/74/10 85/75/10 
f 85/75/10 86/76/10 70/73/10 
f 69/74/10 71/77/10 87/78/10 
f 87/78/10 85/75/10 69/74/10 
f 71/77/10 72/79/10 88/80/10 
f 88/80/10 87/78/10 71/77/10 
f 72/79/10 70/73/10 86/76/10 
f 86/76/10 88/80/10 72/79/10 
f 74/89/10 73/90/10 17/91/10 
f 17/91/10 20/92/10 74/89/10 
f 73/93/8 75/94/8 18/95/8 
f 18/95/8 17/96/8 73/93/8 
f 75/97/12 76/98/12 19/99/12 
f 19/99/12 18/100/12 75/97/12 
f 76/101/7 74/102/7 20/103/7 
f 20/103/7 19/104/7 76/101/7 
f 78/89/11 77/90/11 21/91/11 
f 21/91/11 24/92/11 78/89/11 
f 77/94/8 79/95/8 22/96/8 
f 22/96/8 21/93/8 77/94/8 
f 79/97/9 80/98/9 23/99/9 
f 23/99/9 22/100/9 79/97/9 
f 80/104/7 78/101/7 24/102/7 
f 24/102/7 23/103/7 80/104/7 
f 82/99/12 81/100/12 25/97/12 
f 25/97/12 28/98/12 82/99/12 
f 81/95/8 83/96/8 26/93/8 
f 26/93/8 25/94/8 81/95/8 
f 83/91/10 84/92/10 27/89/10 
f 27/89/10 26/90/10 83/91/10 
f 84/103/7 82/104/7 28/101/7 
f 28/101/7 27/102/7 84/103/7 
f 86/99/9 85/100/9 29/97/9 
f 29/97/9 32/98/9 86/99/9 
f 85/96/8 87/93/8 30/94/8 
f 30/94/8 29/95/8 85/96/8 
f 87/91/11 88/92/11 31/89/11 
f 31/89/11 30/90/11 87/91/11 
f 88/102/7 86/103/7 32/104/7 
f 32/104/7 31/101/7 88/102/7 
# 156 faces

